# xmcd
#
# Track frame offsets:
#	150
#	16808
#	40503
#
# Disc length: 1021 seconds
#
# Revision: 0
# Processed by: cddbd v1.5.2PL0 Copyright (c) Steve Scherf et al.
# Submitted via: audiograbber 1.83.01
#
DISCID=1303fb03
DTITLE=Gallon Drunk - Live at Madison Square Gardens, NYC, 18th Sept 1992 
DYEAR=1992
DGENRE=
TTITLE0=Just One More
TTITLE1=Some Fool's Mess
TTITLE2=Two Wings Mambo
EXTD=
EXTT0=
EXTT1=
EXTT2=
PLAYORDER=
